<svg width="50" height="75" viewBox="0 0 50 75" fill="none" xmlns="http://www.w3.org/2000/svg">
<path d="M25 75L3.34937 37.5L46.6506 37.5L25 75Z" fill="#399ED8"/>
<circle cx="25" cy="25" r="25" fill="#399ED8"/>
<path d="M11 14.0556H14.0556V11C12.3674 11 11 12.3674 11 14.0556ZM11 26.2778H14.0556V23.2222H11V26.2778ZM17.1111 38.5H20.1667V35.4444H17.1111V38.5ZM11 20.1667H14.0556V17.1111H11V20.1667ZM26.2778 11H23.2222V14.0556H26.2778V11ZM35.4444 11V14.0556H38.5C38.5 12.3674 37.1326 11 35.4444 11ZM14.0556 38.5V35.4444H11C11 37.1326 12.3674 38.5 14.0556 38.5ZM11 32.3889H14.0556V29.3333H11V32.3889ZM20.1667 11H17.1111V14.0556H20.1667V11ZM23.2222 38.5H26.2778V35.4444H23.2222V38.5ZM35.4444 26.2778H38.5V23.2222H35.4444V26.2778ZM35.4444 38.5C37.1326 38.5 38.5 37.1326 38.5 35.4444H35.4444V38.5ZM35.4444 20.1667H38.5V17.1111H35.4444V20.1667ZM35.4444 32.3889H38.5V29.3333H35.4444V32.3889ZM29.3333 38.5H32.3889V35.4444H29.3333V38.5ZM29.3333 14.0556H32.3889V11H29.3333V14.0556ZM17.1111 32.3889H32.3889V17.1111H17.1111V32.3889ZM20.1667 20.1667H29.3333V29.3333H20.1667V20.1667Z" fill="white"/>
</svg>
