<svg width="50" height="75" viewBox="0 0 50 75" fill="none" xmlns="http://www.w3.org/2000/svg">
<path d="M25 75L3.34937 37.5L46.6506 37.5L25 75Z" fill="#FF9E44"/>
<circle cx="25" cy="25" r="25" fill="#FF9E44"/>
<path d="M36.7962 22.0498C36.7962 28.3027 31.4741 33.4495 24.8107 33.4495C18.1473 33.4495 12.8252 28.3027 12.8252 22.0498C12.8252 15.7969 18.1473 10.65 24.8107 10.65C31.4741 10.65 36.7962 15.7969 36.7962 22.0498Z" stroke="white" stroke-width="2"/>
<path d="M29.5517 24.9425C27.6228 27.6826 25.3218 29.7484 23.2043 30.8936C21.0316 32.0687 19.3428 32.1415 18.3379 31.4964C17.3331 30.8512 16.7663 29.3302 17.0856 26.9652C17.3968 24.6603 18.5313 21.8456 20.4602 19.1054C22.3891 16.3653 24.6901 14.2995 26.8076 13.1543C28.9803 11.9792 30.6691 11.9064 31.6739 12.5515C32.6788 13.1967 33.2456 14.7177 32.9263 17.0827C32.6151 19.3876 31.4806 22.2023 29.5517 24.9425Z" stroke="white" stroke-width="2"/>
<path d="M28.6356 18.3208C31.071 20.6688 32.7403 23.2331 33.4997 25.4443C34.2804 27.7175 34.0166 29.3071 33.166 30.1118C32.3153 30.9165 30.6484 31.1534 28.2757 30.3864C25.9676 29.6402 23.2984 28.0218 20.863 25.6738C18.4276 23.3259 16.7583 20.7616 15.9989 18.5503C15.2182 16.2772 15.482 14.6875 16.3326 13.8828C17.1833 13.0781 18.8502 12.8412 21.2229 13.6083C23.531 14.3544 26.2002 15.9728 28.6356 18.3208Z" stroke="white" stroke-width="2"/>
</svg>
