<svg width="50" height="75" viewBox="0 0 50 75" fill="none" xmlns="http://www.w3.org/2000/svg">
<path d="M25 75L3.34937 37.5L46.6506 37.5L25 75Z" fill="#A369B8"/>
<circle cx="25" cy="25" r="25" fill="#A369B8"/>
<path d="M23 31.276C22.2652 31.1948 21.556 31.0287 20.8824 30.7877C20.905 30.2965 20.9168 29.7842 20.9168 29.25L20.9169 29.0825C20.917 28.914 20.9171 28.7353 20.9164 28.5481C21.5641 28.8559 22.2643 29.0709 23 29.1762V24.0417C23 22.3158 24.3991 20.9167 26.125 20.9167H31.2596C30.754 17.383 27.7151 14.6667 24.0417 14.6667C22.8216 14.6667 21.6716 14.9663 20.6611 15.496C20.4875 14.7965 20.2223 14.1579 19.8558 13.5674C21.1157 12.9377 22.5373 12.5833 24.0417 12.5833C28.8672 12.5833 32.8412 16.2292 33.3594 20.9167H36.5417C38.2675 20.9167 39.6667 22.3158 39.6667 24.0417V34.4583C39.6667 36.1842 38.2675 37.5833 36.5417 37.5833H26.125C24.3991 37.5833 23 36.1842 23 34.4583V31.276ZM33.3594 23C32.8792 27.3454 29.4287 30.7958 25.0833 31.276V34.4583C25.0833 35.0335 25.5497 35.5 26.125 35.5H36.5417C37.1169 35.5 37.5833 35.0335 37.5833 34.4583V24.0417C37.5833 23.4664 37.1169 23 36.5417 23H33.3594ZM31.2596 23H26.125C25.5497 23 25.0833 23.4664 25.0833 24.0417V29.1762C28.2768 28.7194 30.8027 26.1934 31.2596 23ZM18.4062 24.1689C18.1876 23.3655 17.8331 22.5585 17.2256 21.9413C18.2076 21.0064 18.8333 19.5247 18.8333 17.7917C18.8333 16.3389 18.5391 15.3422 18.0074 14.5446C17.7527 14.1626 17.4651 13.8592 17.1973 13.6004C17.0556 13.4634 16.9452 13.3615 16.8417 13.2661C16.7141 13.1485 16.597 13.0405 16.4449 12.8884C16.1322 12.5757 16.099 12.3257 16.099 12.1927C16.099 12.1122 16.1126 12.0468 16.124 12.0069C16.1279 11.9933 16.1312 11.9838 16.1329 11.979C16.3258 11.5622 16.223 11.0663 15.8769 10.7608C15.5228 10.4482 15.0027 10.413 14.6097 10.675L14.606 10.6774L14.6001 10.6814L14.5816 10.694L14.5195 10.7371C14.4675 10.7736 14.395 10.8257 14.3066 10.8919C14.1302 11.0239 13.888 11.2141 13.6181 11.4511C13.0946 11.9111 12.4168 12.5914 11.9346 13.4043C11.5319 14.0285 11.1821 14.8045 10.9314 15.5546C10.6819 16.3012 10.5 17.1132 10.5 17.7917C10.5 19.5247 11.1258 21.0064 12.1077 21.9413C11.5002 22.5585 11.1458 23.3655 10.9272 24.1689C10.4997 25.7399 10.4999 27.6765 10.5 29.1757V29.25C10.5 33.5379 11.3029 36.085 12.211 37.5983C12.6662 38.3571 13.142 38.8456 13.5389 39.1544C13.7362 39.3077 13.9108 39.4144 14.0491 39.4867C14.1181 39.5229 14.1778 39.5504 14.2264 39.5708C14.2264 39.5708 14.4907 39.6667 14.6667 39.6667C14.8426 39.6667 15.107 39.5708 15.107 39.5708C15.1556 39.5504 15.2153 39.5229 15.2843 39.4867C15.4225 39.4144 15.5971 39.3077 15.7945 39.1544C16.1913 38.8456 16.6671 38.3571 17.1224 37.5983C18.0304 36.085 18.8333 33.5379 18.8333 29.25L18.8334 29.1757C18.8335 27.6765 18.8336 25.7399 18.4062 24.1689ZM13.5984 23.3968C13.8316 23.1625 14.147 23 14.6667 23C15.1864 23 15.5018 23.1625 15.735 23.3968C15.9979 23.6609 16.2256 24.0898 16.3959 24.7159C16.7426 25.9901 16.75 27.6611 16.75 29.25C16.75 33.2954 15.9904 35.4358 15.336 36.5267C15.0865 36.9423 14.8491 37.2115 14.6667 37.3806C14.4842 37.2115 14.2468 36.9423 13.9974 36.5267C13.3429 35.4358 12.5833 33.2954 12.5833 29.25C12.5833 27.6611 12.5907 25.9901 12.9374 24.7159C13.1078 24.0898 13.3355 23.6609 13.5984 23.3968ZM14.6667 20.9167C13.8652 20.9167 12.5833 20.0257 12.5833 17.7917C12.5833 17.4307 12.6919 16.8597 12.9074 16.2149C13.119 15.5816 13.404 14.9662 13.6939 14.5204C13.7025 14.5072 13.7108 14.4938 13.7188 14.4801C13.8995 14.1725 14.1362 13.8743 14.3896 13.6011C14.5325 13.8565 14.7229 14.1127 14.9718 14.3616C15.1249 14.5147 15.3228 14.6989 15.4917 14.8561C15.5935 14.9509 15.6847 15.0358 15.7493 15.0982C15.9698 15.3113 16.1379 15.4962 16.2739 15.7002C16.5234 16.0744 16.75 16.6403 16.75 17.7917C16.75 20.0257 15.4682 20.9167 14.6667 20.9167Z" fill="white"/>
</svg>
