<svg width="50" height="75" viewBox="0 0 50 75" fill="none" xmlns="http://www.w3.org/2000/svg">
<path d="M25 75L3.34937 37.5L46.6506 37.5L25 75Z" fill="#F2C952"/>
<circle cx="25" cy="25" r="25" fill="#F2C952"/>
<path d="M14 34.83C14 36.4121 15.2876 37.7 16.8693 37.7H34.0852C35.6669 37.7 36.9545 36.4121 36.9545 34.83V30.525C36.9545 28.9429 35.6669 27.655 34.0852 27.655H33.0719L33.6019 23.961C33.7784 22.7251 33.4114 21.4736 32.5932 20.5305C31.7749 19.586 30.5897 19.045 29.3414 19.045H28.3466V18.2469C30.0535 17.2513 31.2159 15.4205 31.2159 13.305V12.4081C31.2159 10.5288 29.6874 9 27.8086 9H23.146C21.2671 9 19.7386 10.5288 19.7386 12.4081V13.305C19.7386 15.4205 20.901 17.2513 22.608 18.2469V19.045H21.6132C20.3649 19.045 19.1797 19.586 18.3614 20.5305C17.5432 21.4736 17.176 22.7251 17.3527 23.961L17.8826 27.655H16.8693C15.2876 27.655 14 28.9429 14 30.525V34.83ZM22.608 12.4081C22.608 12.1111 22.849 11.87 23.146 11.87H27.8086C28.1056 11.87 28.3466 12.1111 28.3466 12.4081V13.305C28.3466 14.8871 27.059 16.175 25.4773 16.175C23.8956 16.175 22.608 14.8871 22.608 13.305V12.4081ZM20.5303 22.4096C20.8062 22.0902 21.1915 21.915 21.6132 21.915H24.0426H26.9119H29.3414C29.763 21.915 30.1484 22.0902 30.4244 22.4096C30.7019 22.7292 30.8209 23.1356 30.7607 23.5546L30.1722 27.655H20.7824L20.1939 23.5546C20.1337 23.1356 20.2528 22.7292 20.5303 22.4096ZM16.8693 30.525L19.5359 30.5246L19.5384 30.525H31.4163C31.4209 30.525 31.4248 30.5227 31.4292 30.5227L34.0852 30.5221V34.83H16.8693V30.525Z" fill="white"/>
</svg>
