<svg width="77" height="77" viewBox="0 0 77 77" fill="none" xmlns="http://www.w3.org/2000/svg">
<path d="M0.825703 21.3784C0.714487 10.3332 9.57818 1.28924 20.6233 1.17802L55.6215 0.825616C66.6667 0.7144 75.7107 9.57809 75.8219 20.6232L76.1743 55.6215C76.2855 66.6666 67.4218 75.7106 56.3767 75.8218L21.3785 76.1742C10.3333 76.2854 1.28932 67.4217 1.17811 56.3766L0.825703 21.3784Z" fill="#8BD5CB"/>
<path d="M71.383 34.8167L71.3831 34.8176C72.4036 44.1282 69.4388 53.4782 63.2359 60.4623L63.2359 60.4624C57.0451 67.4343 48.1364 71.4955 38.8195 71.5893C37.7133 71.6005 36.5865 71.546 35.4639 71.4505C19.8742 70.0577 7.30833 57.7544 5.60322 42.1826C4.58244 32.8578 7.54775 23.5078 13.7368 16.5378L13.7369 16.5378C20.6733 8.72489 30.9707 4.59598 41.5194 5.53573C57.1238 6.92707 69.6911 19.2442 71.383 34.8167ZM6.33941 42.0994L6.33942 42.0995C7.9989 57.34 20.278 69.3742 35.5488 70.7265C45.8424 71.6495 55.9316 67.6092 62.7084 59.9698C68.7626 53.1525 71.6666 44.0058 70.6604 34.8989C68.9868 19.6739 56.7096 7.64103 41.4542 6.27373C40.3687 6.17207 39.2572 6.12707 38.1741 6.13798C29.0557 6.22979 20.3444 10.2008 14.2914 17.0166C8.23627 23.8349 5.34744 32.9812 6.33941 42.0994Z" fill="#974949" stroke="#733737" stroke-width="2"/>
<path d="M38.8919 34.0776C37.4998 33.9689 36.1143 34.5146 35.1837 35.5468C34.3613 36.4824 33.9647 37.7274 34.1001 38.9806C34.3256 41.0648 36.0195 42.7115 38.1216 42.9085C38.2718 42.9206 38.4081 42.9192 38.5581 42.9177C39.8126 42.9051 40.9935 42.3614 41.8296 41.4256C42.6657 40.4899 43.0623 39.2449 42.9133 37.9918C42.6742 35.9214 40.9939 34.2746 38.8919 34.0776ZM39.7796 39.6325C39.456 39.9904 39.008 40.1994 38.5172 40.2044C38.449 40.2051 38.3944 40.2056 38.3398 40.1925C37.5344 40.1188 36.8871 39.4844 36.811 38.6942C36.7515 38.2039 36.9103 37.725 37.234 37.3672C37.5577 37.0093 38.0192 36.8001 38.4965 36.7953C38.551 36.7948 38.6192 36.7941 38.6739 36.8072C39.4792 36.8809 40.1265 37.5153 40.2028 38.3191C40.2484 38.7823 40.0897 39.2749 39.7796 39.6325Z" fill="#974949"/>
<path d="M47.9545 32.4434L47.2959 33.591L48.5797 33.9114L64.4859 37.8814C64.6649 37.93 64.7698 38.0766 64.7714 38.2354C64.773 38.3942 64.6711 38.5428 64.4932 38.595L48.6566 42.8846L47.3803 43.2303L48.0605 44.3643L52.4434 51.6705L52.4447 51.6727C52.5198 51.7973 52.5073 51.9758 52.3934 52.0996C52.3041 52.1819 52.2115 52.2126 52.1251 52.2134C52.0924 52.2138 52.0297 52.205 51.9387 52.156L44.5545 47.9397L43.4059 47.2839L43.0879 48.5677L39.1456 64.4863C39.0968 64.6648 38.9504 64.7694 38.7918 64.771C38.633 64.7726 38.4844 64.6707 38.4321 64.4929L34.1426 48.6562L33.7971 47.381L32.6636 48.0597L25.3437 52.4427L25.3312 52.4502L25.319 52.4581C25.2871 52.4784 25.2331 52.4978 25.1539 52.4986C25.0494 52.4997 24.9535 52.4592 24.8918 52.3987L24.8863 52.3933L24.8807 52.388C24.7685 52.2813 24.7407 52.1082 24.8235 51.9645L24.8252 51.9615L29.0599 44.5549L29.7157 43.4079L28.4338 43.0883L12.514 39.1184C12.3351 39.0698 12.2302 38.9232 12.2286 38.7645C12.227 38.6057 12.3289 38.457 12.5068 38.4048L28.3434 34.1152L29.6208 33.7692L28.9391 32.6349L24.5563 25.3423L24.5554 25.3408C24.4728 25.2039 24.4854 25.0275 24.612 24.8943C24.7187 24.782 24.8918 24.7542 25.0356 24.8371L25.0397 24.8394L32.4462 29.0605L33.5924 29.7138L33.9117 28.4337L37.8815 12.5139C37.9301 12.335 38.0767 12.2301 38.2355 12.2285C38.3943 12.2269 38.543 12.3289 38.5952 12.507L42.8985 28.344L43.2442 29.616L44.3761 28.9404L51.6961 24.571L51.7002 24.5686C51.8277 24.4916 52.0117 24.5066 52.1357 24.6281C52.2459 24.7361 52.2744 24.9167 52.1904 25.0625L52.1895 25.064L47.9545 32.4434ZM48.9647 29.2188L50.8632 25.9119L47.5862 27.8616L44.0888 29.9423L43.4372 30.33L43.6345 31.062L43.9462 32.2181L44.0994 32.7866L44.6709 32.9283L45.833 33.2166L46.5653 33.3983L46.941 32.7439L48.9647 29.2188ZM29.2176 28.048L25.8994 26.1505L27.8633 29.4299L29.9577 32.9271L30.346 33.5756L31.0759 33.3789L32.2319 33.0672L32.8004 32.914L32.9422 32.3425L33.2305 31.1804L33.4125 30.4468L32.7563 30.0715L29.2176 28.048ZM28.0481 47.7823L26.1506 51.1005L29.4299 49.1367L32.9272 47.0422L33.5757 46.6539L33.3789 45.924L33.0673 44.768L32.914 44.1995L32.3426 44.0577L31.1805 43.7694L30.4469 43.5874L30.0716 44.2436L28.0481 47.7823ZM47.7809 48.951L51.0878 50.8494L49.1382 47.5725L47.0574 44.0751L46.6698 43.4235L45.9377 43.6208L44.7817 43.9325L44.2132 44.0858L44.0714 44.6572L43.7831 45.8193L43.6014 46.5516L44.2558 46.9273L47.7809 48.951ZM43.8037 43.4516L43.8064 43.4509L59.2831 39.2585L62.9907 38.2542L59.2641 37.3231L43.7477 33.4465C43.5887 33.3999 43.4932 33.287 43.4652 33.1824L43.4644 33.1793L39.2722 17.7299L38.2672 14.026L37.3369 17.7493L33.4603 33.2658C33.4137 33.4247 33.3008 33.5202 33.1963 33.5482L33.1932 33.549L17.7437 37.7412L14.0352 38.7475L17.7638 39.6766L33.2661 43.5396C33.4249 43.5863 33.5203 43.6991 33.5483 43.8036L33.5491 43.8067L37.7412 59.2562L38.7475 62.9648L39.6767 59.2361L43.5397 43.7338C43.5864 43.575 43.6992 43.4796 43.8037 43.4516Z" fill="#974949" stroke="#733737" stroke-width="2"/>
<path d="M38.5661 45.062L38.6398 52.3859" stroke="#210F8C" stroke-width="2" stroke-linecap="round"/>
<path d="M38.3584 24.4382L38.4321 31.7621" stroke="#8C0F0F" stroke-width="2" stroke-linecap="round"/>
</svg>
