<svg width="70" height="70" viewBox="0 0 70 70" fill="none" xmlns="http://www.w3.org/2000/svg">
<rect width="70" height="70" fill="#C56868"/>
<g filter="url(#filter0_d_181_108)">
<path d="M57.6123 13.6779L34.989 13.733L12.3658 13.6228H12.3547C9.31332 13.6228 6.90002 16.4768 6.90002 20.047V49.9531C6.90002 53.5234 9.31332 56.3774 12.3547 56.3774H57.6453C60.6867 56.3774 63.1 53.5234 63.1 49.9531V20.047C63.1 16.4768 60.7088 13.6779 57.6123 13.6779ZM55.8381 18.0856L35.6281 36.5648L35.551 36.6309L35.4849 36.7081C35.2425 36.9725 34.9559 37.0056 34.8017 37.0056C34.6474 37.0056 34.3609 36.9615 34.1295 36.686L34.0634 36.6089L14.746 17.9974L34.989 18.1297L55.8381 18.0856ZM57.6453 51.9697H12.3547C11.969 51.9697 11.3079 51.2424 11.3079 49.9531V20.7522L30.8787 39.6612C31.8705 40.7631 33.2699 41.4022 34.7576 41.4243H34.8237C36.2893 41.4243 37.6558 40.8182 38.6585 39.7604L58.7142 21.4024V49.9531C58.6922 51.2424 58.031 51.9697 57.6453 51.9697Z" fill="#CEE4DF"/>
<path d="M34.9866 14.233L34.9902 14.233L57.6123 14.1779C57.6125 14.1779 57.6127 14.1779 57.6129 14.1779C60.3645 14.1783 62.6 16.6794 62.6 20.047V49.9531C62.6 53.3277 60.3365 55.8773 57.6453 55.8773H12.3547C9.66357 55.8773 7.40002 53.3277 7.40002 49.9531V20.047C7.40002 16.6725 9.66357 14.1228 12.3547 14.1228H12.3645H12.3658L34.9866 14.233ZM56.1755 18.4546L57.1289 17.5829L55.8371 17.5856L34.9901 17.6297L34.9879 17.6297L14.7493 17.4974L13.4979 17.4893L14.3991 18.3575L33.6993 36.9524L33.7466 37.0076C33.7472 37.0083 33.7478 37.0091 33.7485 37.0098C34.1066 37.4345 34.5584 37.5056 34.8017 37.5056C35.0275 37.5056 35.4782 37.4552 35.8535 37.0459L35.8591 37.0398L35.8645 37.0335L35.9056 36.9855L35.9535 36.9444L35.9596 36.9392L35.9655 36.9338L56.1755 18.4546ZM11.6553 20.3927L10.8079 19.5739V20.7522V49.9531C10.8079 50.6825 10.9949 51.2798 11.2622 51.7091C11.3951 51.9226 11.5529 52.1025 11.7259 52.234C11.8913 52.3596 12.1095 52.4697 12.3547 52.4697H57.6453C57.8906 52.4697 58.1087 52.3596 58.2739 52.2344C58.4468 52.1034 58.6051 51.9241 58.7391 51.7116C59.0085 51.2842 59.2017 50.6892 59.2142 49.9617L59.2142 49.9617V49.9531V21.4024V20.2669L58.3766 21.0335L38.3209 39.3916L38.3079 39.4035L38.2957 39.4164C37.3846 40.3775 36.1481 40.9243 34.8237 40.9243H34.7614C33.4147 40.9033 32.1485 40.3247 31.2503 39.3267L31.2387 39.3137L31.2261 39.3016L11.6553 20.3927Z" stroke="#CEE4DF"/>
</g>
<defs>
<filter id="filter0_d_181_108" x="2.90002" y="13.6228" width="64.2" height="50.7546" filterUnits="userSpaceOnUse" color-interpolation-filters="sRGB">
<feFlood flood-opacity="0" result="BackgroundImageFix"/>
<feColorMatrix in="SourceAlpha" type="matrix" values="0 0 0 0 0 0 0 0 0 0 0 0 0 0 0 0 0 0 127 0" result="hardAlpha"/>
<feOffset dy="4"/>
<feGaussianBlur stdDeviation="2"/>
<feComposite in2="hardAlpha" operator="out"/>
<feColorMatrix type="matrix" values="0 0 0 0 0 0 0 0 0 0 0 0 0 0 0 0 0 0 0.25 0"/>
<feBlend mode="normal" in2="BackgroundImageFix" result="effect1_dropShadow_181_108"/>
<feBlend mode="normal" in="SourceGraphic" in2="effect1_dropShadow_181_108" result="shape"/>
</filter>
</defs>
</svg>
