<svg width="70" height="70" viewBox="0 0 70 70" fill="none" xmlns="http://www.w3.org/2000/svg">
<rect width="70" height="70" fill="#C56868"/>
<g filter="url(#filter0_d_181_111)">
<path d="M34.6565 52.4343H38.2782C38.2782 52.4343 39.373 52.3131 39.9299 51.7108C40.4451 51.1577 40.4262 50.1198 40.4262 50.1198C40.4262 50.1198 40.3542 45.2596 42.6121 44.5437C44.8359 43.8391 47.6924 49.2409 50.7193 51.3206C53.0075 52.8927 54.7464 52.548 54.7464 52.548L62.8422 52.4343C62.8422 52.4343 67.0776 52.1729 65.0698 48.8432C64.9069 48.5704 63.8992 46.3809 59.05 41.8806C53.9735 37.1682 54.6554 37.9334 60.7699 29.7852C64.4939 24.8227 65.9828 21.7922 65.5168 20.4967C65.0736 19.2618 62.3345 19.5875 62.3345 19.5875L53.2272 19.6406C53.2272 19.6406 52.5529 19.5497 52.049 19.8489C51.5603 20.1444 51.2459 20.8263 51.2459 20.8263C51.2459 20.8263 49.8025 24.6674 47.878 27.9328C43.8206 34.8234 42.1954 35.187 41.5324 34.759C39.9905 33.7627 40.377 30.7511 40.377 28.6146C40.377 21.9362 41.3885 19.1519 38.4032 18.4322C37.4106 18.1935 36.6833 18.0344 34.1488 18.0079C30.8984 17.9738 28.1442 18.0193 26.5872 18.7807C25.5491 19.2883 24.7498 20.4209 25.2385 20.4853C25.8409 20.5649 27.2047 20.8528 27.9283 21.8377C28.864 23.1067 28.8299 25.9629 28.8299 25.9629C28.8299 25.9629 29.3679 33.8233 27.5759 34.8006C26.3447 35.4711 24.6589 34.1036 21.0409 27.8494C19.1884 24.6485 17.7867 21.1066 17.7867 21.1066C17.7867 21.1066 17.5177 20.4474 17.0366 20.0952C16.4532 19.6671 15.6349 19.5307 15.6349 19.5307L6.9746 19.5838C6.9746 19.5838 5.67518 19.6216 5.19784 20.1861C4.77354 20.6899 5.16375 21.7278 5.16375 21.7278C5.16375 21.7278 11.945 37.5887 19.6203 45.5854C26.6629 52.9154 34.6565 52.4343 34.6565 52.4343Z" fill="#CEE4DF"/>
</g>
<defs>
<filter id="filter0_d_181_111" x="1" y="18" width="68.61" height="42.5801" filterUnits="userSpaceOnUse" color-interpolation-filters="sRGB">
<feFlood flood-opacity="0" result="BackgroundImageFix"/>
<feColorMatrix in="SourceAlpha" type="matrix" values="0 0 0 0 0 0 0 0 0 0 0 0 0 0 0 0 0 0 127 0" result="hardAlpha"/>
<feOffset dy="4"/>
<feGaussianBlur stdDeviation="2"/>
<feComposite in2="hardAlpha" operator="out"/>
<feColorMatrix type="matrix" values="0 0 0 0 0 0 0 0 0 0 0 0 0 0 0 0 0 0 0.25 0"/>
<feBlend mode="normal" in2="BackgroundImageFix" result="effect1_dropShadow_181_111"/>
<feBlend mode="normal" in="SourceGraphic" in2="effect1_dropShadow_181_111" result="shape"/>
</filter>
</defs>
</svg>
